<?xml version="1.0" encoding="utf-8"?>
<!-- Svg Vector Icons : http://www.onlinewebfonts.com/icon -->
<!DOCTYPE svg PUBLIC "-//W3C//DTD SVG 1.1//EN" "http://www.w3.org/Graphics/SVG/1.1/DTD/svg11.dtd">
<svg version="1.1" xmlns="http://www.w3.org/2000/svg" xmlns:xlink="http://www.w3.org/1999/xlink" x="0px" y="0px" viewBox="0 0 1000 1000" enable-background="new 0 0 1000 1000" xml:space="preserve">
<metadata> Svg Vector Icons : http://www.onlinewebfonts.com/icon </metadata>
<g><g transform="translate(0.000000,511.000000) scale(0.100000,-0.100000)"><path d="M3200,1897.8c-695-15.3-1518.3-47.9-1684.9-67C540.6,1723.5,144.3,1354,104.1,511.6C52.4-562.5,492.8-1330.3,1304.6-1590.7c227.8-72.8,348.5-90,651-90c325.5,0,469.1,24.9,765.9,128.3c323.6,114.9,628,306.3,903.7,566.7c543.7,518.9,850.1,1108.6,894.1,1725.1c15.3,195.3,23,224,70.8,294.9c34.5,47.9,95.7,99.6,158.9,132.1c86.2,45.9,124.4,53.6,250.8,53.6c126.4,0,164.6-7.7,250.8-53.6c63.2-32.5,124.5-84.2,157-132.1c51.7-70.8,57.4-99.6,72.8-304.4c38.3-549.5,310.2-1110.5,773.5-1592.9c400.2-417.4,779.3-641.4,1311.5-775.4c135.9-34.5,216.3-40.2,488.2-40.2c289.1,1.9,346.5,7.7,517,51.7c765.8,204.9,1215.8,767.8,1309.6,1637c61.3,568.6-21.1,1043.5-225.9,1315.3c-208.7,275.7-599.3,444.2-1179.4,507.4c-388.7,40.2-1233,59.3-3092.1,65.1C4335.4,1901.6,3353.2,1901.6,3200,1897.8z M6144.7,1681.4c-333.2-118.7-505.5-243.2-589.7-421.2l-44-95.7l-76.6,65.1c-227.8,195.3-643.3,195.3-869.2,0l-78.5-67l-49.8,103.4c-90,183.8-247,294.9-582,415.5l-204.9,72.8h1349.8h1349.8L6144.7,1681.4z"/></g></g>
</svg>